<svg width="400" height="200" viewBox="0 0 400 200" xmlns="http://www.w3.org/2000/svg">
  <defs>
    <linearGradient id="grad9" x1="0%" y1="0%" x2="100%" y2="100%">
      <stop offset="0%" style="stop-color:#14b8a6;stop-opacity:0.3" />
      <stop offset="100%" style="stop-color:#3b82f6;stop-opacity:0.3" />
    </linearGradient>
  </defs>
  <rect width="400" height="200" fill="url(#grad9)"/>
  
  <!-- Hospital Building -->
  <rect x="150" y="60" width="100" height="80" fill="#14b8a6" opacity="0.6" rx="6"/>
  <rect x="160" y="70" width="15" height="15" fill="#3b82f6" opacity="0.7" rx="2"/>
  <rect x="185" y="70" width="15" height="15" fill="#14b8a6" opacity="0.7" rx="2"/>
  <rect x="210" y="70" width="15" height="15" fill="#3b82f6" opacity="0.7" rx="2"/>
  <rect x="235" y="70" width="15" height="15" fill="#14b8a6" opacity="0.7" rx="2"/>
  
  <rect x="160" y="95" width="15" height="15" fill="#3b82f6" opacity="0.6" rx="2"/>
  <rect x="185" y="95" width="15" height="15" fill="#14b8a6" opacity="0.6" rx="2"/>
  <rect x="210" y="95" width="15" height="15" fill="#3b82f6" opacity="0.6" rx="2"/>
  <rect x="235" y="95" width="15" height="15" fill="#14b8a6" opacity="0.6" rx="2"/>
  
  <rect x="185" y="120" width="30" height="20" fill="#3b82f6" opacity="0.8" rx="3"/>
  
  <!-- Medical Cross -->
  <rect x="195" y="45" width="4" height="20" fill="#ef4444" opacity="0.9" rx="2"/>
  <rect x="187" y="53" width="20" height="4" fill="#ef4444" opacity="0.9" rx="2"/>
  
  <!-- Calendar/Appointment -->
  <rect x="80" y="80" width="50" height="40" fill="#3b82f6" opacity="0.5" rx="4"/>
  <rect x="85" y="85" width="8" height="6" fill="#14b8a6" opacity="0.8" rx="1"/>
  <rect x="95" y="85" width="8" height="6" fill="#3b82f6" opacity="0.8" rx="1"/>
  <rect x="105" y="85" width="8" height="6" fill="#14b8a6" opacity="0.8" rx="1"/>
  <rect x="115" y="85" width="8" height="6" fill="#3b82f6" opacity="0.8" rx="1"/>
  
  <rect x="85" y="95" width="8" height="6" fill="#3b82f6" opacity="0.7" rx="1"/>
  <rect x="95" y="95" width="8" height="6" fill="#14b8a6" opacity="0.9" rx="1"/>
  <rect x="105" y="95" width="8" height="6" fill="#3b82f6" opacity="0.7" rx="1"/>
  <rect x="115" y="95" width="8" height="6" fill="#14b8a6" opacity="0.7" rx="1"/>
  
  <rect x="85" y="105" width="8" height="6" fill="#14b8a6" opacity="0.7" rx="1"/>
  <rect x="95" y="105" width="8" height="6" fill="#3b82f6" opacity="0.7" rx="1"/>
  <rect x="105" y="105" width="8" height="6" fill="#14b8a6" opacity="0.7" rx="1"/>
  <rect x="115" y="105" width="8" height="6" fill="#3b82f6" opacity="0.7" rx="1"/>
  
  <!-- Patient list -->
  <rect x="270" y="90" width="60" height="4" fill="#14b8a6" opacity="0.6" rx="2"/>
  <rect x="270" y="100" width="50" height="4" fill="#3b82f6" opacity="0.5" rx="2"/>
  <rect x="270" y="110" width="55" height="4" fill="#14b8a6" opacity="0.5" rx="2"/>
  <rect x="270" y="120" width="45" height="4" fill="#3b82f6" opacity="0.4" rx="2"/>
  
  <text x="200" y="175" font-family="Arial, sans-serif" font-size="14" fill="#14b8a6" text-anchor="middle" opacity="0.8">Hospital Appointment</text>
</svg>