<svg width="400" height="200" viewBox="0 0 400 200" xmlns="http://www.w3.org/2000/svg">
  <defs>
    <linearGradient id="grad7" x1="0%" y1="0%" x2="100%" y2="100%">
      <stop offset="0%" style="stop-color:#f97316;stop-opacity:0.3" />
      <stop offset="100%" style="stop-color:#eab308;stop-opacity:0.3" />
    </linearGradient>
  </defs>
  <rect width="400" height="200" fill="url(#grad7)"/>
  
  <!-- Layout 4 - Portfolio Style -->
  <rect x="70" y="30" width="60" height="60" fill="#f97316" opacity="0.6" rx="6"/>
  <rect x="140" y="30" width="60" height="60" fill="#eab308" opacity="0.5" rx="6"/>
  <rect x="210" y="30" width="60" height="60" fill="#f97316" opacity="0.4" rx="6"/>
  <rect x="280" y="30" width="60" height="60" fill="#eab308" opacity="0.6" rx="6"/>
  
  <rect x="70" y="100" width="130" height="40" fill="#eab308" opacity="0.6" rx="6"/>
  <rect x="210" y="100" width="130" height="40" fill="#f97316" opacity="0.5" rx="6"/>
  
  <!-- Navigation dots -->
  <circle cx="150" cy="155" r="4" fill="#f97316" opacity="0.8"/>
  <circle cx="170" cy="155" r="4" fill="#eab308" opacity="0.6"/>
  <circle cx="190" cy="155" r="4" fill="#f97316" opacity="0.6"/>
  <circle cx="210" cy="155" r="4" fill="#eab308" opacity="0.6"/>
  <circle cx="230" cy="155" r="4" fill="#f97316" opacity="0.6"/>
  <circle cx="250" cy="155" r="4" fill="#eab308" opacity="0.8"/>
  
  <!-- Decorative elements -->
  <rect x="20" y="50" width="30" height="3" fill="#f97316" opacity="0.5" rx="2"/>
  <rect x="20" y="70" width="20" height="3" fill="#eab308" opacity="0.5" rx="2"/>
  <rect x="350" y="60" width="30" height="3" fill="#f97316" opacity="0.5" rx="2"/>
  <rect x="360" y="80" width="20" height="3" fill="#eab308" opacity="0.5" rx="2"/>
  
  <text x="200" y="185" font-family="Arial, sans-serif" font-size="14" fill="#f97316" text-anchor="middle" opacity="0.8">Layout 4</text>
</svg>