<svg width="400" height="200" viewBox="0 0 400 200" xmlns="http://www.w3.org/2000/svg">
  <defs>
    <linearGradient id="grad6" x1="0%" y1="0%" x2="100%" y2="100%">
      <stop offset="0%" style="stop-color:#14b8a6;stop-opacity:0.3" />
      <stop offset="100%" style="stop-color:#06b6d4;stop-opacity:0.3" />
    </linearGradient>
  </defs>
  <rect width="400" height="200" fill="url(#grad6)"/>
  
  <!-- Layout 3 - Dashboard Style -->
  <rect x="50" y="40" width="100" height="40" fill="#14b8a6" opacity="0.6" rx="6"/>
  <rect x="160" y="40" width="80" height="40" fill="#06b6d4" opacity="0.5" rx="6"/>
  <rect x="250" y="40" width="100" height="40" fill="#14b8a6" opacity="0.4" rx="6"/>
  
  <rect x="50" y="90" width="150" height="60" fill="#06b6d4" opacity="0.6" rx="6"/>
  <rect x="210" y="90" width="140" height="60" fill="#14b8a6" opacity="0.5" rx="6"/>
  
  <!-- Chart elements -->
  <rect x="70" y="110" width="8" height="20" fill="#14b8a6" opacity="0.8" rx="2"/>
  <rect x="85" y="105" width="8" height="25" fill="#06b6d4" opacity="0.8" rx="2"/>
  <rect x="100" y="115" width="8" height="15" fill="#14b8a6" opacity="0.7" rx="2"/>
  <rect x="115" y="100" width="8" height="30" fill="#06b6d4" opacity="0.7" rx="2"/>
  <rect x="130" y="110" width="8" height="20" fill="#14b8a6" opacity="0.6" rx="2"/>
  
  <circle cx="275" cy="115" r="20" fill="#14b8a6" opacity="0.5"/>
  <circle cx="275" cy="115" r="12" fill="#06b6d4" opacity="0.6"/>
  
  <rect x="50" y="160" width="300" height="4" fill="#14b8a6" opacity="0.5" rx="2"/>
  
  <text x="200" y="185" font-family="Arial, sans-serif" font-size="14" fill="#14b8a6" text-anchor="middle" opacity="0.8">Layout 3</text>
</svg>