<svg width="400" height="200" viewBox="0 0 400 200" xmlns="http://www.w3.org/2000/svg">
  <defs>
    <linearGradient id="grad3" x1="0%" y1="0%" x2="100%" y2="100%">
      <stop offset="0%" style="stop-color:#3b82f6;stop-opacity:0.3" />
      <stop offset="100%" style="stop-color:#6366f1;stop-opacity:0.3" />
    </linearGradient>
  </defs>
  <rect width="400" height="200" fill="url(#grad3)"/>
  
  <!-- Browser mockup -->
  <rect x="50" y="40" width="300" height="120" fill="#1f2937" rx="8"/>
  <rect x="55" y="55" width="290" height="100" fill="#111827" rx="4"/>
  
  <!-- Browser dots -->
  <circle cx="70" cy="47" r="3" fill="#ef4444" opacity="0.8"/>
  <circle cx="82" cy="47" r="3" fill="#eab308" opacity="0.8"/>
  <circle cx="94" cy="47" r="3" fill="#22c55e" opacity="0.8"/>
  
  <!-- Content blocks -->
  <rect x="70" y="70" width="120" height="6" fill="#3b82f6" opacity="0.7" rx="3"/>
  <rect x="200" y="70" width="80" height="6" fill="#6366f1" opacity="0.6" rx="3"/>
  
  <rect x="70" y="85" width="80" height="4" fill="#3b82f6" opacity="0.5" rx="2"/>
  <rect x="160" y="85" width="100" height="4" fill="#6366f1" opacity="0.5" rx="2"/>
  
  <rect x="70" y="100" width="60" height="20" fill="#3b82f6" opacity="0.4" rx="4"/>
  <rect x="140" y="100" width="60" height="20" fill="#6366f1" opacity="0.4" rx="4"/>
  <rect x="210" y="100" width="60" height="20" fill="#3b82f6" opacity="0.3" rx="4"/>
  
  <rect x="70" y="130" width="200" height="3" fill="#6366f1" opacity="0.6" rx="2"/>
  <rect x="70" y="140" width="150" height="3" fill="#3b82f6" opacity="0.5" rx="2"/>
  
  <text x="200" y="185" font-family="Arial, sans-serif" font-size="14" fill="#3b82f6" text-anchor="middle" opacity="0.8">Obys Agency Portfolio</text>
</svg>