<svg width="400" height="200" viewBox="0 0 400 200" xmlns="http://www.w3.org/2000/svg">
  <defs>
    <linearGradient id="grad2" x1="0%" y1="0%" x2="100%" y2="100%">
      <stop offset="0%" style="stop-color:#eab308;stop-opacity:0.3" />
      <stop offset="100%" style="stop-color:#ef4444;stop-opacity:0.3" />
    </linearGradient>
  </defs>
  <rect width="400" height="200" fill="url(#grad2)"/>
  
  <!-- Phone mockup -->
  <rect x="150" y="30" width="100" height="140" fill="#1f2937" rx="15"/>
  <rect x="160" y="45" width="80" height="110" fill="#111827" rx="8"/>
  
  <!-- Video thumbnails -->
  <rect x="165" y="50" width="70" height="40" fill="#eab308" opacity="0.6" rx="4"/>
  <circle cx="200" cy="70" r="8" fill="white" opacity="0.8"/>
  <polygon points="196,66 196,74 204,70" fill="#1f2937"/>
  
  <rect x="165" y="95" width="70" height="25" fill="#ef4444" opacity="0.5" rx="4"/>
  <rect x="165" y="125" width="70" height="25" fill="#eab308" opacity="0.4" rx="4"/>
  
  <!-- Floating elements -->
  <circle cx="80" cy="80" r="20" fill="#eab308" opacity="0.5"/>
  <rect x="60" y="70" width="40" height="3" fill="#ef4444" opacity="0.6" rx="2"/>
  <rect x="65" y="85" width="30" height="3" fill="#eab308" opacity="0.6" rx="2"/>
  
  <circle cx="320" cy="100" r="25" fill="#ef4444" opacity="0.4"/>
  <rect x="300" y="90" width="40" height="4" fill="#eab308" opacity="0.7" rx="2"/>
  <rect x="305" y="110" width="30" height="4" fill="#ef4444" opacity="0.6" rx="2"/>
  
  <text x="200" y="185" font-family="Arial, sans-serif" font-size="14" fill="#eab308" text-anchor="middle" opacity="0.8">Zomato Reel Clone</text>
</svg>